<mxfile host="app.diagrams.net" modified="2021-03-30T22:10:07.312Z" agent="5.0 (Windows NT 10.0; Win64; x64) AppleWebKit/537.36 (KHTML, like Gecko) Chrome/89.0.4389.90 Safari/537.36" etag="8Lxz3ejd6cx8KSMkJzSg" version="14.5.3" type="github">
  <diagram id="WHzlqciuJQte_6YO7btD" name="Page-1">
    <mxGraphModel dx="1038" dy="556" grid="1" gridSize="10" guides="1" tooltips="1" connect="1" arrows="1" fold="1" page="1" pageScale="1" pageWidth="100" pageHeight="100" math="0" shadow="0">
      <root>
        <mxCell id="0" />
        <mxCell id="1" parent="0" />
        <mxCell id="8CqnhyE_vhiBqhHBOoKB-8" value="" style="strokeWidth=1;shadow=0;dashed=0;align=center;html=1;shape=mxgraph.mockup.containers.browserWindow;rSize=0;strokeColor=#666666;strokeColor2=#008cff;strokeColor3=#c4c4c4;mainText=,;recursiveResize=0;" vertex="1" parent="1">
          <mxGeometry width="940" height="900" as="geometry" />
        </mxCell>
        <mxCell id="8CqnhyE_vhiBqhHBOoKB-9" value="Page 1" style="strokeWidth=1;shadow=0;dashed=0;align=center;html=1;shape=mxgraph.mockup.containers.anchor;fontSize=17;fontColor=#666666;align=left;" vertex="1" parent="8CqnhyE_vhiBqhHBOoKB-8">
          <mxGeometry x="60" y="12" width="110" height="26" as="geometry" />
        </mxCell>
        <mxCell id="8CqnhyE_vhiBqhHBOoKB-10" value="https://www.draw.io" style="strokeWidth=1;shadow=0;dashed=0;align=center;html=1;shape=mxgraph.mockup.containers.anchor;rSize=0;fontSize=17;fontColor=#666666;align=left;" vertex="1" parent="8CqnhyE_vhiBqhHBOoKB-8">
          <mxGeometry x="130" y="60" width="250" height="26" as="geometry" />
        </mxCell>
        <mxCell id="8CqnhyE_vhiBqhHBOoKB-1" value="Logo" style="whiteSpace=wrap;html=1;aspect=fixed;" vertex="1" parent="8CqnhyE_vhiBqhHBOoKB-8">
          <mxGeometry x="6" y="120" width="60" height="60" as="geometry" />
        </mxCell>
        <mxCell id="8CqnhyE_vhiBqhHBOoKB-3" value="Login:" style="text;html=1;strokeColor=none;fillColor=none;align=center;verticalAlign=middle;whiteSpace=wrap;rounded=0;" vertex="1" parent="8CqnhyE_vhiBqhHBOoKB-8">
          <mxGeometry x="590" y="140" width="40" height="20" as="geometry" />
        </mxCell>
        <mxCell id="8CqnhyE_vhiBqhHBOoKB-5" value="Senha:" style="text;html=1;strokeColor=none;fillColor=none;align=center;verticalAlign=middle;whiteSpace=wrap;rounded=0;" vertex="1" parent="8CqnhyE_vhiBqhHBOoKB-8">
          <mxGeometry x="745" y="140" width="40" height="20" as="geometry" />
        </mxCell>
        <mxCell id="8CqnhyE_vhiBqhHBOoKB-11" value="********" style="strokeWidth=1;shadow=0;dashed=0;align=center;html=1;shape=mxgraph.mockup.forms.pwField;strokeColor=#999999;mainText=;align=left;fontColor=#666666;fontSize=17;spacingLeft=3;" vertex="1" parent="8CqnhyE_vhiBqhHBOoKB-8">
          <mxGeometry x="785" y="140" width="100" height="20" as="geometry" />
        </mxCell>
        <mxCell id="8CqnhyE_vhiBqhHBOoKB-12" value="login" style="strokeWidth=1;shadow=0;dashed=0;align=center;html=1;shape=mxgraph.mockup.text.textBox;fontColor=#666666;align=left;fontSize=17;spacingLeft=4;spacingTop=-3;strokeColor=#666666;mainText=" vertex="1" parent="8CqnhyE_vhiBqhHBOoKB-8">
          <mxGeometry x="640" y="140" width="100" height="20" as="geometry" />
        </mxCell>
        <mxCell id="8CqnhyE_vhiBqhHBOoKB-14" value="Links de noticias de outros sites" style="html=1;strokeColor=none;fillColor=#0079D6;labelPosition=center;verticalLabelPosition=middle;verticalAlign=top;align=center;fontSize=12;outlineConnect=0;spacingTop=-6;fontColor=#FFFFFF;shape=mxgraph.sitemap.news;" vertex="1" parent="8CqnhyE_vhiBqhHBOoKB-8">
          <mxGeometry x="40" y="230" width="570" height="510" as="geometry" />
        </mxCell>
        <mxCell id="8CqnhyE_vhiBqhHBOoKB-15" value="Promoções de jogos encontradas" style="whiteSpace=wrap;html=1;" vertex="1" parent="8CqnhyE_vhiBqhHBOoKB-8">
          <mxGeometry x="640" y="230" width="280" height="510" as="geometry" />
        </mxCell>
        <mxCell id="8CqnhyE_vhiBqhHBOoKB-23" value="Home" style="shape=rectangle;strokeColor=none;fillColor=none;linkText=;fontSize=17;fontColor=#0000ff;fontStyle=4;html=1;align=center;" vertex="1" parent="8CqnhyE_vhiBqhHBOoKB-8">
          <mxGeometry x="100" y="800" width="150" height="30" as="geometry" />
        </mxCell>
        <mxCell id="8CqnhyE_vhiBqhHBOoKB-24" value="Quem Somos" style="shape=rectangle;strokeColor=none;fillColor=none;linkText=;fontSize=17;fontColor=#0000ff;fontStyle=4;html=1;align=center;" vertex="1" parent="8CqnhyE_vhiBqhHBOoKB-8">
          <mxGeometry x="360" y="800" width="150" height="30" as="geometry" />
        </mxCell>
        <mxCell id="8CqnhyE_vhiBqhHBOoKB-25" value="Fale Conosco" style="shape=rectangle;strokeColor=none;fillColor=none;linkText=;fontSize=17;fontColor=#0000ff;fontStyle=4;html=1;align=center;" vertex="1" parent="8CqnhyE_vhiBqhHBOoKB-8">
          <mxGeometry x="650" y="800" width="150" height="30" as="geometry" />
        </mxCell>
      </root>
    </mxGraphModel>
  </diagram>
</mxfile>
